<?xml version="1.0" standalone="no"?>
<!DOCTYPE svg PUBLIC "-//W3C//DTD SVG 20010904//EN"
 "http://www.w3.org/TR/2001/REC-SVG-20010904/DTD/svg10.dtd">
<svg version="1.0" xmlns="http://www.w3.org/2000/svg"
 width="83.000000pt" height="83.000000pt" viewBox="0 0 83.000000 83.000000"
 preserveAspectRatio="xMidYMid meet">
<metadata>
Created by potrace 1.11, written by Peter Selinger 2001-2013
</metadata>
<g transform="translate(0.000000,83.000000) scale(0.100000,-0.100000)"
fill="#000000" stroke="none">
<path d="M623 723 c9 -2 23 -2 30 0 6 3 -1 5 -18 5 -16 0 -22 -2 -12 -5z"/>
<path d="M315 710 c-3 -5 1 -10 9 -10 9 0 16 5 16 10 0 6 -4 10 -9 10 -6 0
-13 -4 -16 -10z"/>
<path d="M220 690 c0 -11 2 -20 4 -20 2 0 6 9 9 20 3 11 1 20 -4 20 -5 0 -9
-9 -9 -20z"/>
<path d="M797 704 c-3 -4 -37 -8 -75 -9 -95 -4 -116 -11 -107 -38 4 -12 6 -46
5 -75 -2 -75 6 -92 41 -92 18 0 33 7 41 20 13 21 44 27 50 11 2 -5 20 -12 41
-16 l37 -7 0 106 c0 82 -3 106 -13 106 -8 0 -16 -3 -20 -6z"/>
<path d="M245 690 c-3 -5 -3 -15 1 -21 3 -6 0 -15 -7 -20 -8 -5 -16 -3 -21 4
-4 6 -10 8 -15 3 -4 -4 0 -12 10 -17 25 -15 21 -27 -8 -21 -15 2 -25 0 -25 -7
0 -7 4 -10 8 -7 5 3 7 -12 5 -33 -3 -26 1 -44 12 -55 11 -11 13 -16 4 -16 -7
0 -4 -6 6 -14 17 -13 22 -11 43 12 22 23 24 32 19 83 -3 41 -1 63 9 76 18 24
18 36 -1 29 -8 -3 -15 -1 -15 4 0 13 -17 13 -25 0z m12 -122 c-3 -8 -6 -5 -6
6 -1 11 2 17 5 13 3 -3 4 -12 1 -19z"/>
<path d="M34 613 c-22 -15 -34 -53 -34 -104 0 -45 2 -50 15 -39 12 10 19 10
27 2 16 -16 43 -15 58 3 7 8 26 15 42 15 37 0 43 16 25 76 l-14 49 -54 3 c-30
1 -59 -1 -65 -5z"/>
<path d="M390 520 c-8 -5 -11 -10 -6 -10 4 0 -2 -8 -13 -17 -22 -18 -21 -18
25 -18 28 1 49 6 52 13 2 7 -1 12 -7 12 -6 0 -8 7 -5 15 7 17 -22 20 -46 5z"/>
<path d="M515 519 c-11 -17 -2 -18 30 -4 l30 13 -27 1 c-15 1 -30 -4 -33 -10z"/>
<path d="M235 430 c-8 -12 2 -30 17 -30 7 0 7 4 -1 13 -6 8 -8 17 -4 20 3 4 4
7 0 7 -3 0 -9 -4 -12 -10z"/>
<path d="M413 391 c-24 -25 -30 -65 -13 -76 6 -4 8 -10 5 -15 -3 -5 0 -12 6
-16 8 -5 10 1 7 18 -4 21 -1 24 14 20 12 -3 18 1 18 12 0 9 -4 16 -10 16 -5 0
-10 11 -10 25 0 14 5 25 11 25 6 0 8 -7 5 -16 -5 -14 -1 -16 26 -10 40 8 44
12 27 29 -22 20 -62 15 -86 -12z"/>
<path d="M560 418 c0 -2 6 -23 14 -47 l13 -45 6 34 c7 32 -5 60 -24 60 -5 0
-9 -1 -9 -2z"/>
<path d="M475 360 c-14 -7 -8 -8 20 -3 22 3 42 7 44 9 9 8 -45 2 -64 -6z"/>
<path d="M550 359 c0 -5 5 -7 10 -4 6 3 10 8 10 11 0 2 -4 4 -10 4 -5 0 -10
-5 -10 -11z"/>
<path d="M468 313 c7 -3 16 -2 19 1 4 3 -2 6 -13 5 -11 0 -14 -3 -6 -6z"/>
<path d="M485 220 c-4 -6 -16 -10 -28 -8 -19 3 -22 -2 -20 -26 1 -16 4 -31 7
-33 7 -7 67 32 88 56 17 20 17 21 -12 21 -16 0 -32 -5 -35 -10z"/>
<path d="M271 131 c-21 -40 -25 -43 -36 -28 -13 18 -6 23 -88 -60 l-38 -38
100 -3 c99 -3 135 5 184 40 14 10 20 10 35 0 35 -25 61 -34 78 -28 13 5 16 17
12 66 -2 33 -7 62 -10 65 -3 4 -24 -3 -47 -14 -46 -24 -68 -26 -122 -10 -26 8
-39 18 -41 33 -3 17 -8 13 -27 -23z m-48 -46 c-3 -9 -8 -14 -10 -11 -3 3 -2 9
2 15 9 16 15 13 8 -4z"/>
<path d="M710 70 c-9 -6 -10 -10 -3 -10 6 0 15 5 18 10 8 12 4 12 -15 0z"/>
<path d="M592 50 c0 -14 2 -19 5 -12 2 6 2 18 0 25 -3 6 -5 1 -5 -13z"/>
</g>
</svg>
